<svg xmlns="http://www.w3.org/2000/svg" width="741" height="565" viewBox="52 95 741 565"><g opacity=".8"><circle opacity=".1" fill="#FFF" stroke="#FFF" stroke-miterlimit="10" cx="732.199" cy="155.993" r="54.376"/><circle opacity=".1" fill="#FFF" stroke="#FFF" stroke-miterlimit="10" cx="732.199" cy="155.993" r="48.493"/><path fill="#5B5A5D" stroke="#676767" stroke-miterlimit="10" d="M760.735 140.292c-.006-.007-.017-.01-.024-.016.65-1.432.45-5.257-12.155-12.55-13.74-7.95-16.435-5.397-16.957-4.26-.02-.01-.038-.025-.06-.03l-27.984 48.45h.022c-.653 1.25-.676 4.886 12.268 12.375 13.96 8.078 16.652 5.082 17.158 3.9l27.733-47.868z"/><path fill="#3F4040" d="M733.107 184.422l-26.044-15.068 24.584-42.492 26.044 15.068z"/><path fill="#737F82" d="M734.693 181.68l-26.045-15.07 22.205-38.378 26.044 15.07z"/><path fill="#8B9799" d="M754.518 147.417l-26.044-15.068 2.378-4.113 26.045 15.068z"/><path fill="#5B5A5D" d="M713.92 173.315l-5.48-3.17 1.584-2.742 5.482 3.172zM722.142 178.075l-5.48-3.172 1.584-2.74 5.482 3.172zM730.367 182.83l-5.482-3.172 1.585-2.74 5.482 3.17z"/></g><g opacity=".7"><g fill="#FFF" stroke="#FFF" stroke-miterlimit="10"><circle opacity=".1" cx="206.145" cy="523.881" r="65.197"/><circle opacity=".1" cx="206.145" cy="523.881" r="58.143"/></g><path fill="#5B5A5D" d="M237.082 559.11c-.518 1.814-2.426 2.875-4.24 2.357l-69.214-19.762c-1.814-.518-2.875-2.426-2.357-4.24l13.938-48.813c.518-1.814 2.426-2.875 4.24-2.357l69.214 19.762c1.814.518 2.875 2.426 2.357 4.24L237.08 559.11z"/><path fill="none" stroke="#737F82" stroke-width=".5" stroke-miterlimit="10" d="M237.082 559.11c-.518 1.814-2.426 2.875-4.24 2.357l-69.214-19.762c-1.814-.518-2.875-2.426-2.357-4.24l13.938-48.813c.518-1.814 2.426-2.875 4.24-2.357l69.214 19.762c1.814.518 2.875 2.426 2.357 4.24L237.08 559.11z"/><path fill="#737F82" d="M181.423 492.003l62.436 17.83-13.103 45.88-62.436-17.83z"/><path fill="#3F4040" d="M173.613 514.593c-.24.84-1.117 1.328-1.958 1.088-.84-.24-1.328-1.116-1.088-1.957.24-.84 1.117-1.328 1.958-1.088.84.24 1.328 1.116 1.088 1.958z"/><path fill="none" stroke="#3F4040" stroke-width="2" stroke-linecap="round" stroke-miterlimit="10" d="M241.07 530.56l-1.74 6.09"/><g fill="#8B9799"><path d="M182.58 494.007l59.382 16.957-1.13 3.96-59.38-16.958zM180.862 500.033l59.38 16.957-5.557 19.464-59.38-16.957zM174.536 522.023l18.41 5.257-3.997 13.994-18.41-5.258zM195.375 527.92l18.41 5.258-3.996 13.993-18.41-5.256zM215.633 533.653l18.41 5.257-3.996 13.993-18.41-5.257z"/></g></g><path opacity=".2" fill="#425457" d="M490.555 134.012c27.692.014 47.25 19.76 71.02 58.527 38.848 63.354 52.627 97.537 60.143 116.98 0 0-17.255 21.627-72.768 52.328-30.91 17.095-58.51 20.873-76.9 20.864-14.637-.007-23.443-2.413-23.443-2.413s-25.685-51.12-51.373-98.166c-25.688-47.044-42.6-82.797 27.653-124.15 27.266-16.052 48.102-23.98 65.668-23.972"/><path fill="#425356" d="M641.073 483.34s17.15-20.896 40.967 5.454 63.547-3.314 65.613 45.182-61.053 32.996-66.902 25.05c-5.847-7.945-54.32-54.79-39.677-75.687z"/><path fill="#627377" d="M641.7 485.743s24.768 1.894 35.42 18.83c10.653 16.937 56.43 18.84 59.255 12.257 2.825-6.584-7.207-10.664-16.612-11.296-9.406-.632-26.964-1.58-37.933-12.247-10.97-10.665-21.938-22.585-40.13-7.544z"/><path fill="#DCDCDB" d="M460.464 497.046s-49.745-7.55-70.66 15.015c0 0-24.255 16.712-17.17 59.775 0 0 39.29 15.906 79.008 12.998 0 0 1.682-19.648-4.165-32.193 0 0 28.845 1.686 42.224-1.65s-29.236-53.944-29.236-53.944z"/><path fill="#F2F2F2" d="M463.59 515.756s-21.79-1.906-29.95 12.513c0 0 12.047 50.186-31.846 43.58-41.07-6.917-26.318-39.518-26.318-39.518s5.967-20.064 16.002-22.254c0 0 13.18-20.792 68.987-13.03l3.125 18.708z"/><path fill="#DCDCDB" d="M572.475 557.72s63.935 57.306 90.697 44.776c26.762-12.53 20.074-14.204 25.515-26.325 5.44-12.12 5.89-79.01-47.198-87.814-53.09-8.805-69.015 69.364-69.015 69.364z"/><path fill="#C7C7C7" d="M624.75 522.21s42.21 27.196 45.124 53.117c0 0 12.562-39.5-32.91-69.646l-12.214 16.53z"/><path fill="#627377" d="M373.18 312.43c1.885-6.48 8.792-25.916 1.482-38.252s-26.126-6.283-18.605 2.708c0 0 .417 2.717-.002 4.6 0 0-.576-1.603-1.617-4.07-.865-1.616-1.95-3.072-2.838-4.68-1.082-1.958-1.968-4.08-3.272-5.905-2.746-3.84-6.244-6.785-9.257-10.34-2.55-3.01-3.428-6.98-6.418-9.703-2.413-2.198-5.27-3.598-8.156-5.015-2.51-.658-5.33-1.003-8.346-.65-13.74 1.61-17.15 17.968-5.235 18.392 0 0 9.507 7.687 10.285 20.072-6.847-4.917-22.903-19.728-36.564-15.897 1.264 1.904 1.916 4.84 2.357 6.8.635 2.827 2.08 5.392 3.044 8.114.073.204.15.42.232.642.142-.106.327-.162.542-.128 5.16.822 6.51 5.723 6.77 10.28.022.382-.33.677-.687.687-.098.003-.19-.01-.287-.01-.045.052-.076.108-.13.158 0 0-16.933 1.664-22.79 10.65-5.858 8.986-.425 11.914-.425 11.914s-4.6 3.708-4.603 8.934 4.034 6.997 10.03 10.51c6.425 3.765 16.614 5.652 19.282 1.263.312 2.352.99 3.554.99 3.554s5.01 16.516 21.314 16.315c16.305-.2 54.987-26.102 54.987-26.102s-3.967-8.36-2.083-14.84z"/><path fill="#A9B3B5" d="M320.686 368.79l-4.07-9.88s15.537-34.168 62.88-31.95l4.858 6.744-63.668 35.086z"/><path fill="#8D9699" d="M320.687 367.38s11.934-39.293 63.144-34.25c0 0 4.806 4.81-2.093 7.732-6.9 2.924-61.893 40.103-61.05 26.517z"/><path fill="#DCDCDB" d="M324.66 366.545s11.906-33.962 56.022-30.49L413.7 380.8s33.647 12.663 43.366 12.667c0 0 20.375 20.83 7.498 58.856 0 0-44.738 5.715-74.727-8.41 0 .002-47.744-38.692-65.178-77.37z"/><path fill="#F2F2F2" d="M467.834 426.64c.027.056.115-.04.17-.065v-.002l.047-.016c.444-.186.897-.343 1.346-.513-.296-2.006-.72-3.72-1.2-4.94-.96-2.436-1.702-5.173-2.494-8.07-1.493-5.454-3.733-13.694-6.82-13.82-11.096-.452-41.376-11.3-44.796-12.536-.836-.302-1.537-.767-2.178-1.367-11.283-10.548-27.75-35.238-33.232-43.593-.814-.027-2.164-.04-2.164-.04h-.255c-18.235-.008-29.885 7.06-36.893 13.96 3.983 6.24 31.964 49.14 59.606 66.965 0 0 40.173 6.184 68.272 3.17.036-.03.156 0 .592.87z"/><path fill="#DCDCDB" d="M461.095 452.42c-3.097-7.955-15.08-44.157 16.298-60.127l-3.582-.802s-33.478 12.067-15.578 60.928h2.863z"/><path fill="#048CB9" d="M631.534 326.98s19.635 28.438 21.27 102.017c1.088 48.903-22.218 126.66-108.76 135.4-86.544 8.736-94.863-76.552-76.444-126.71 0 0-1.662-20.068-10.013-41.81-7.994-20.82 161.833-88.552 173.947-68.897z"/><path fill="#DCDCDB" d="M444.965 390.362s-34.205 13.532-14.998 62.634h2.927s-19.708-43.766 15.654-61.763l-3.583-.87z"/><path fill="#1DACE3" d="M621.04 417.694l-13.615-52.37-5.91-15.366-2.44 1.75s11.684 15.18 18.203 60.653c6.458 45.05 2.284 71.245-20.535 101.266-18.673 24.568-39.868 31.976-51.338 34.207-2.277.678-4.607 1.477-6.964 2.036l2.168 1.554c27.027-2.765 48.235-20.243 58.747-36.072 10.512-15.83 21.338-33.382 23.23-56.583 1.894-23.203-1.546-41.076-1.546-41.076z"/><path fill="#0C6788" d="M606.022 347.453s-18.98 20.45-7.39 43.03c11.59 22.58 15.823 23.76 27.11 25.332 11.287 1.573-19.72-68.362-19.72-68.362z"/><path fill="#626D70" d="M439.197 385.884l6.684 10.402s43.054 14.654 102.12-14.06c51.704-25.134 87.194-59.844 87.194-59.844l-1.98-13.17-194.017 76.672z"/><path fill="#017499" d="M601.514 349.958s23.92 53.94 21.39 99.09c-2.53 45.15-17.08 90.357-54.036 109.434l-2.77 1.848s93.548-15.736 87.133-148.474c-6.13-70.342-21.173-86.497-21.173-86.497s-16.102 13.997-30.543 24.598z"/><path fill="#8D9699" d="M442.023 378.1s-9.41 9.4 4.384 11.603 56.12 8.18 102.538-16.568 84.37-55.456 84.374-62.667-9.718-7.53-9.718-7.53L442.022 378.1z"/><g opacity=".2"><path fill="none" stroke="#FFF" stroke-width="3" stroke-miterlimit="10" d="M621.72 309.52c-7.517-19.443-21.296-53.625-60.145-116.98-38.85-63.356-66.435-75.91-136.69-34.558s-53.34 77.106-27.652 124.15c25.687 47.045 51.373 98.166 51.373 98.166s44.83 12.25 100.344-18.45c55.513-30.7 72.77-52.327 72.77-52.327z"/><path fill="#FFF" d="M490.556 134.012c27.692.014 47.25 19.76 71.02 58.527 38.848 63.354 52.627 97.537 60.143 116.98 0 0-17.256 21.627-72.77 52.328-30.91 17.095-58.508 20.873-76.9 20.864-14.636-.007-23.443-2.413-23.443-2.413s-25.685-51.12-51.373-98.166-42.6-82.797 27.653-124.15c27.267-16.052 48.103-23.98 65.67-23.972m0-5.017c-18.184-.01-39.223 7.598-68.215 24.663-34.076 20.058-50.684 40.37-52.265 63.928-1.4 20.852 9.005 41.77 22.754 66.95 25.352 46.426 51.038 97.502 51.295 98.012l1.004 1.997 2.156.59c.386.105 9.628 2.582 24.763 2.59 18.446.008 47.183-3.713 79.33-21.49 55.743-30.83 73.53-52.674 74.26-53.588l1.797-2.25-1.038-2.687c-6.47-16.733-19.928-51.553-60.547-117.796-13.253-21.614-24.06-35.482-35.036-44.97-12.414-10.724-25.583-15.942-40.26-15.95z"/></g><path fill="#676767" d="M576.527 343.44l-41.895 24.348-42.25 13.447-17.897-26.743 91.91-45.183"/><path fill="#425356" d="M427.537 294.898s-15.684 11.985-36.58-1.403c0 0 18.586 36.72 47.023 20.01 0 0-5.848-14.006-10.443-18.607z"/><path opacity=".5" fill="#718587" d="M506.883 140.226s2.38 18.052 1.928 29.2l-66.806 162.372-9.267 8.893-23.58-45.623s-20.797-37.952-24.277-51.35-10.688-36.977 18.008-63.655c23.166-21.006 50.958-32.804 61.118-36.634 10.16-3.83 30.033-8.884 42.877-3.202z"/><path fill="#627377" d="M418.05 313.774c6.674.1 12.126-2.688 17.175-6.333-2.114-4.375-5.1-9.95-7.688-12.543 0 0-15.684 11.985-36.58-1.403 0 0 3.973 7.534 10.81 14.76 10.176 9.605 9.93 5.424 16.283 5.52z"/><path fill="#717272" d="M419.2 298.168c-5.72 1.586-4.008 8.285-1.79 12.16 2.102 3.675 5.473 6.4 9.397 7.194 3.496-.443 7.225-1.696 11.172-4.015 0 0-5.847-14.008-10.443-18.608 0 0-2.95 2.114-8.127 3.162-.063.042-.126.083-.21.106z"/><path fill="#909A9D" d="M419.2 298.168c-5.72 1.586-4.008 8.285-1.79 12.16.713 1.247 1.577 2.382 2.555 3.374 5.812-.4 10.706-2.97 15.26-6.26-2.113-4.376-5.098-9.952-7.687-12.544 0 0-2.95 2.115-8.127 3.163-.063.044-.126.085-.21.108z"/><path fill="#E8F6FD" d="M580.178 231.83c.583 1.016 1.166 2.05 1.75 3.1-.584-1.054-1.167-2.082-1.75-3.1zM583.034 236.95c.43.793.862 1.58 1.294 2.393-.432-.813-.863-1.598-1.294-2.392zM577.6 227.424c.685 1.142 1.37 2.313 2.057 3.5-.688-1.19-1.373-2.36-2.057-3.5z"/><path fill="#F3FAFD" d="M499.402 378.44c-14.105-8.158 1.262-17.243-7.198-27.595 0 0 54.56-5.617 63.978-29.756 0 0 1.78.427 6.34 3.73.347-.596 2.844-.812 3.17-1.427 10.81-20.343 5.094-44.17 1.496-65.635-.09-.537 3.465-1.747 0-1.045.825-7.365-.012-13.91 3.732-20.397 1.864-3.23 4.15-6.17 6.68-8.896-47.78-68.97-58.44-68.557-58.44-68.557 2.506 7.527 2.08 20.068 2.08 20.068-14.203-20.49-30.51-18.41-30.51-18.41 2.09 4.6 2.086 11.29 2.086 11.29-14.626-13.385-44.31-9.637-44.31-9.637 10.86 16.31 13.358 41.395 13.358 41.395-19.222-17.15-50.162-10.894-50.162-10.894l1.67 6.27c-7.108-1.256-11.08.414-11.08.414 15.044 12.13 18.167 39.725 18.167 39.725-19.23-5.026-36.792 2.49-36.792 2.49s15.04 18.402 30.913 46.838c25.377 41.57 42.238 85.938 43.785 93.067 8.615.738 25.69-.522 41.037-3.036z"/><path fill="#D2ECF9" d="M581.928 234.93c.37.664.737 1.342 1.105 2.02-.368-.676-.737-1.357-1.105-2.02zM577.598 227.42v.003M584.328 239.343c.84 1.58 1.677 3.184 2.515 4.84-.84-1.656-1.677-3.263-2.515-4.84zM579.656 230.922c.174.3.348.603.522.907-.174-.304-.347-.607-.522-.908z"/><path fill="#DDEAF0" d="M564.35 257.207c.365-.23.9-.17.99.37 3.598 21.465 9.013 45.094-1.797 65.437-.327.614-.675 1.21-1.02 1.808 4.6 3.336 12.567 14.672 6.292 23.866 17.465-11.11 38.77-25.94 47.505-34.058.98-1.21 1.426-1.87 1.426-1.87s-1.25-10.035-30.902-68.578c-.838-1.654-1.676-3.26-2.515-4.84-.433-.81-.864-1.6-1.295-2.39-.37-.68-.738-1.358-1.105-2.023-.584-1.05-1.167-2.085-1.75-3.1-.174-.305-.348-.607-.522-.908-.687-1.186-1.373-2.358-2.057-3.5v-.002c-2.53 2.726-4.816 5.665-6.68 8.896-3.746 6.488-5.746 13.526-6.57 20.89z"/><path fill="#4E4D50" d="M534.566 367.82l.066-.032"/><path fill="#DDEAF0" d="M548.74 196.796c5.198 7.84 7.737 17.352 9.305 26.723 4.432-1.9 8.568-4.365 12.585-7.033-17.53-25.798-40.777-51.81-47.71-55.736 7.247 5.692 20.866 28.574 25.82 36.046z"/><path fill="#425356" d="M550.482 221.59s-7.12 23.825 21.718 43.07l-2.92-14.634s42.236-22.973 11.747-81.934c0 0-1.693 40.97-30.545 53.497z"/><path fill="#627377" d="M565.963 259.037c-1.592-3.034-3.618-6.846-3.244-10.405.39-3.734 3.213-5.642 5.87-7.975 4.682-4.107 8.51-8.596 12.13-13.65 11.993-16.766 9.014-40.752.276-58.387-.312 4.772-3.567 41.27-30.514 52.97 0 0-6.2 20.78 16.47 39.203-.334-.583-.676-1.16-.99-1.756z"/><path fill="#717272" d="M581.002 239.69c-5.164.584-10.254-.542-13.673-5.308-4.836-6.74-6.972-15.05-3.402-22.296-3.652 3.854-8.077 7.17-13.446 9.502 0 0-7.12 23.826 21.718 43.07l-2.92-14.633s5.917-3.218 11.722-10.335z"/><path fill="#909A9D" d="M568.59 240.656c.966-.846 1.887-1.714 2.785-2.595-1.5-.857-2.875-2.045-4.046-3.678-4.844-6.75-6.98-15.078-3.386-22.33-3.657 3.864-8.08 7.2-13.462 9.536 0 0-6.2 20.78 16.47 39.204-.335-.583-.677-1.16-.99-1.756-1.592-3.034-3.618-6.846-3.244-10.405.393-3.733 3.214-5.64 5.873-7.974z"/><path fill="#DDEAF0" d="M445.234 334.9c1.768 8.45 8.614 14.167 15.29 12.77 6.677-1.396 12.336-9.927 10.567-18.378-1.766-8.45-10.29-13.62-16.966-12.224-6.678 1.397-10.658 9.38-8.89 17.83zM492.12 312.375c1.747 8.348 9.436 13.918 16.03 12.538 6.597-1.38 11.906-9.807 10.158-18.156-1.746-8.35-9.885-13.455-16.48-12.076-6.598 1.38-11.456 9.346-9.708 17.695z"/><path fill="#FFF" d="M490.866 309.686c1.72 8.22 9.713 13.198 16.208 11.84 6.495-1.36 11.417-9.52 9.7-17.74-1.722-8.22-9.432-13.385-15.927-12.026-6.494 1.36-11.7 9.706-9.98 17.926zM444.298 331.958c1.74 8.32 9.832 13.645 16.406 12.27 6.575-1.377 11.842-9.637 10.102-17.957-1.742-8.318-9.83-13.548-16.405-12.17-6.572 1.375-11.842 9.538-10.102 17.858z"/><path fill="#425356" d="M492.51 296.424c.064.51.168 1.023.344 1.535 1.1.21 1.142-1.207 2.827-1.984 1.497-.692 2.51-.312 3.515.062 1.512 1.16 2.844 3.045 3.66 5.43 1.7 4.935.542 10.105-2.575 11.545-3.118 1.442-7.023-1.39-8.717-6.332-1.358-3.945-.888-8.034.947-10.256z"/><path opacity=".6" fill="#FFF" d="M499.892 300.038c.84 2.363-.12 5.09-2.144 6.095-2.026 1.004-4.35-.098-5.19-2.46s.12-5.092 2.144-6.096c2.025-1.003 4.35.1 5.19 2.46z"/><path fill="#BDDAE3" d="M458.684 290.628s-22.26-3.146-29.163 8.45c0 0-4.07-12.857 8.162-17.553 12.23-4.696 21.002 9.103 21.002 9.103zM476.88 271.51s4.398-18.496 19.45-23.82c15.053-5.322 20.068-1.243 20.068-1.243s-6.265-10.977-22.57-8.477c-16.307 2.5-21.96 24.76-16.95 33.54z"/><path fill="#425356" d="M449.858 315.216c.064.51.17 1.023.344 1.535.916 2.673 1.925-.42 3.61-1.197 1.496-.692 3.246 1.648 2.73-.722 1.513 1.16 2.845 3.046 3.662 5.43 1.698 4.936.54 10.106-2.576 11.546-3.118 1.442-7.023-1.39-8.717-6.332-1.356-3.947-.886-8.036.948-10.258z"/><path opacity=".6" fill="#FFF" d="M457.16 319.904c.797 2.26-.202 4.9-2.23 5.9s-4.314-.023-5.11-2.282.203-4.9 2.23-5.9c2.027-.998 4.315.023 5.11 2.282z"/><path fill="#717272" d="M535.127 284.782c-45.45 1.302-53.662 12.233-53.662 12.233l.013-.003c-4.8 3.747-4.253 7.22-6.915 8.15-4.18 1.462-8.546-.472-19.65 4.172-24.463 10.23-26.35 23.19-26.35 23.19.626 2.716 3.132 6.898 6.29 8.357 3.16 1.46 5.825 9.835 9.795 13.18 3.97 3.348 10.66 2.515 21.95-1.66s12.964-9.61 13.593-13.79-2.917-17.977-2.917-17.977c2.3-1.88 5.595-1.928 5.595-1.928s2.91 3.876 6.055 8.295c3.146 4.42 6.11 9.946 10.71 9.53 4.598-.416 14.005-2.292 29.894-9.183 15.89-6.89 13.385-15.46 13.385-15.46l-4.59-20.28c4.81-.834 21.323-.408 21.323-.408l.212-5.853c-4.557-1.36-13.89-1.415-24.73-.565zm-72.5 63.854c-10.244 3.34-15.68 3.336-18.812-2.518s-7.1-14.008-7.1-14.008 12.342-18.597 33.872-18.378c0 0 4.383 14.843 4.588 21.114.207 6.27-2.304 10.45-12.548 13.79zm56.45-22.547c-18.19 6.26-18.846 6.425-22.07 2.787-3.223-3.637-11.37-14.092-13.458-19.737-2.088-5.645 10.874-11.7 20.49-14.204 9.618-2.504 21.533-3.543 27.803-2.495l5.425 21.534s-.003 5.853-18.192 12.115z"/><path fill="#737F82" d="M475.165 336.268c-.228 5.49-3.09 9.288-12.538 12.368-8.14 2.654-13.24 3.185-16.563.357.816 1.213 1.747 2.31 3.148 2.96 1.35.624 2.71.967 4.078 1.134 2.943-.033 5.946-.964 8.61-2.03 3.502-1.402 9.695-3.47 11.763-6.85 1.222-1.997 1.682-4.997 1.502-7.94zM498.686 330.51c.66.875 1.387 1.54 2.17 2.036 8.39-.787 16.527-2.898 24.19-6.632 4.835-2.357 10.795-5.517 14.172-10.137-.946-3.52-2.01-7.01-3.236-10.447-.943-2.643-1.836-5.447-2.94-8.123l4.225 16.767s-.003 5.852-18.192 12.115c-14.77 5.084-17.977 6.147-20.39 4.42z"/><path fill="#425356" d="M447.353 377.788s31.14 12.243 86.753-11.56c55.614-23.802 86.36-59.216 86.36-59.216l1.252 2.51s-30.745 35.415-86.36 59.216c-55.613 23.803-86.752 11.56-86.752 11.56l-1.253-2.51z"/><path fill="#017499" d="M467.444 436.483s30.068-40.798 98.415-29.477c0 0-39.182-24.998-99.718 18.868l1.302 10.61zM475.992 448.093s25.046-28.184 61.52-25.57c14.65 1.075 22.696.26 27.537-.154.8 2.09 1.434 4.284 1.434 4.284l-5.238 12.02s-38.244-17.265-76.85 13.135c0 0-3.045 8.16-2.153 12.427 5.366-3.15 49.358-16.856 68.84-3.49 20.356 13.964 23.583 40.82-3.96 53.793-27.54 12.972-56.863 8.505-70.448.708 0 0-1.78-2.34-2.144-3.34-.887-2.44-.89-5.377-.89-8.533 0 0 22.704 10.77 42.374 7.44 19.67-3.33 37.195-9.813 36.845-23.54-.352-13.727-20.726-31.917-81.174-7.09 0 0-1.25-1.484-2.144-3.34-.216-5.332 1.885-16.928 6.45-28.752z"/><path fill="#F2F2F2" d="M473.85 444.753s21.35-24.09 60.757-24.85c20.468-.163 30.443 2.465 30.443 2.465l-4.722 12.494s-38.37-14.5-78.077 13.606c0 0-3.043 8.16-2.15 12.428 5.365-3.15 49.357-16.856 68.84-3.49 20.355 13.964 23.582 40.82-3.96 53.793-27.542 12.97-56.864 8.504-70.45.707 0 0-3.035-7.42-3.033-11.873 0 0 22.703 10.77 42.373 7.44 19.67-3.33 37.195-9.814 36.845-23.54-.35-13.728-20.725-31.918-81.173-7.09 0 0-1.78-16.326 4.307-32.09z"/><path fill="#627377" d="M524.48 391.936l-12.544 3.443 1.247 14.11s-37.64 27.26-25.124 82.135c3.914 17.167 9.243 30.36 15.264 40.56 4.617-.018 9.224-.236 13.83-.526.27-.71.754-1.303 1.208-1.913-7.55-10.475-14.028-24.127-17.446-41.878-10.006-55.817 26.377-80.57 26.377-80.57l-2.814-15.364z"/><path fill="#017499" d="M518.757 551.63s-37.263 6.332-51.25-26.075c0 0 13.58 44.065 73.28 39.27l-22.03-13.194z"/><path fill="#8D9699" d="M524.48 391.936l-12.544 3.443 1.247 14.11s-37.64 27.26-25.124 82.135c3.98 17.453 9.42 30.792 15.565 41.06l1.295.037c3.278.1 6.557.095 9.833-.057.645-.03 1.287-.08 1.93-.12.24-.307.47-.63.702-.95.008-.02.007-.04.018-.06.312-.584.727-1.104 1.02-1.7-7.603-10.495-14.07-24.112-17.507-41.966-10.006-55.817 26.377-80.57 26.377-80.57l-2.814-15.364z"/><path fill="#626D70" d="M518.503 529.962c-7.61-10.5-14.147-24.227-17.588-42.093-10.006-55.817 26.377-80.57 26.377-80.57l-2.814-15.364-3.554.625 2.71 13.59s-36.358 24.97-25.75 80.673c3.777 19.833 10.897 34.615 18.948 45.59.553-.823 1.1-1.645 1.67-2.45z"/><path fill="#F2F2F2" d="M504.374 453.904l-6.84 1.25s-1.212 10.155-.81 12.38l8.002-1.525-.352-12.106zM508.665 435.242l-5.757 2.023s3.185-9.82 7.174-13.7c0 0 5.965-1.526 7.104-1.666.94.07-8.52 13.342-8.52 13.342z"/><path fill="#0C6788" d="M621.67 410.106s15.688 9.174 31.88 9.856c0 0-.147-12.252-1.586-20.84-1.44-8.59-30.295 10.984-30.295 10.984z"/><path fill="#F2F2F2" d="M510.964 507.89s-4.336.23-5.543.135c0 0 2.61 7.56 5.2 11.457 0 0 6.775-.506 8.295-.923 1.052-.29-7.95-10.67-7.95-10.67z"/><path fill="#DCDCDB" d="M747.285 326.514c-2.185-21.166-23.193-18.668-23.193-18.668-18.04-4.777-36.71-2.426-52.456 1.996-21.412 9.973-41.988 21.576-60.375 36.41-12.195 15.574-11.913 30.054-5.887 45.253 3.683 9.29 9.337 15.137 15.98 18.14 4.077 1.153 8.722-.043 13.085-1.473.568-.187 1.126-.396 1.687-.596 1.077-.503 2.108-1.06 3.438-1.757 4.525-2.376 9.062-4.808 13.51-7.322 8.365-4.726 16.613-10.82 26.375-12.11.755-.795 1.18-1.274 1.18-1.274 2.346 10.192 10.024 18.818 10.024 18.818l71.655-19.718c2.84-38.095-15.022-57.7-15.022-57.7z"/><path fill="#F2F2F2" d="M664.042 318.79s6.583 2.2 7.365 7.843c.78 5.644-1.73 12.698-8.318 19.122 0 0 24.933-15.194 44.214-10.17 0 0-8.95 26.02 13.46 43.904 0 0 21.482-5.948 35.433-1.708 0 0 2.52-22.574-15.026-49.234 0 0 2.046-13.638-18.492-13.962 0 0-23.983-8.79-58.636 4.205z"/><path fill="#C7C7C7" d="M704.272 337.05s-30.855 8.772-28.54 50.07c1.187-.308 2.395-.55 3.626-.717l1.166-1.21s-5.734-31.854 23.748-48.144z"/><path fill="#FFF" d="M663.938 318.844s34.372-14 58.782-4.995c0 0 20.443-1.448 18.345 14.438 0 0 16.922 18.612 15.236 47.876 0 0-1.45-25.503-18.58-47.04 0 0 5.442-11.495-16.715-13.387 0-.002-18.39-8.162-57.067 3.107z"/><path fill="#118EA3" d="M496.724 467.535l2.076 3.62 1.813-4.314M508.378 435.388s-4.163 1.322-5.47 1.877l1.127 2.75 4.343-4.627zM516.633 519.022s-5.365.415-6.012.46l3.396 3.087 2.617-3.548z"/><path fill="#626D70" d="M776.354 405.02l-3.13-10.872s-1.873-17.35-36.573-13.396c-34.7 3.955-48.92 18.162-46.418 29.45 2.502 11.29 86.122-5.183 86.122-5.183z"/><path fill="#425356" d="M692.114 405.186s23.636-32.597 69.407-17.524c20.378 6.594 29.76 56.766-14.765 60.507-44.525 3.74-60.08-34.207-54.64-42.984z"/><path fill="#627377" d="M692.114 405.186s-9.308 12.537-9 21.004c.31 8.466-11.294 14.417 2.495 28.534 13.788 14.116 20.373 12.866 24.758 21.96s11.91 10.04 32.922 1.27c21.012-8.77 21.643-15.667 25.726-30.715 4.084-15.05 8.488-46.402-14.396-54.88-22.884-8.475-42.845-10.68-62.506 12.826z"/><path fill="#57666A" d="M735.478 426.99s19.66 14.57 24.567 32.16c0 0 4.173-25.15-24.567-32.16z"/><path fill="#017499" d="M620.935 469.507s-19.033 77.253-81.744 80.985c0 0 11.128 7.844 22.05 11.325 0 0 15.835-3.44 21.167-7.202 5.332-3.76 44.552-57.357 44.013-77.894-.54-20.536-5.485-7.213-5.485-7.213z"/><path fill="#1DACE3" d="M467.048 436.483s15.023-20.27 45.238-27.78v.68l-1.51 1.83s-22.58 4.887-44.225 28.158l.498-2.887zM526.98 405.968s23.048-3.202 38.88 1.038c0 0-28.61-2.052-39.82 1.234l1.253-.94-.312-1.332zM520.638 553.096s-22.158 1.557-34.07-6.287c-11.91-7.846-15.773-14.328-15.773-14.328s15.092 14.76 26.643 17.154c11 2.28 12.227 1.966 21.556 1.97l1.644 1.49z"/><path fill="#7B898D" d="M310.922 245.51s-5.854 3.028-5.23 6.79c.626 3.763 2.507 5.02 6.112 5.334 3.605.315 11.133-3.913 13.486-6.264 2.353-2.35 4.34-5.694-1.617-7.108-5.956-1.414-9.458-.945-12.75 1.248z"/><path fill="#627377" d="M285.263 277.578s5.6 1.23 10.258 6.743c6.854 20.655 20.275 1.524 25.053-5.204-5.17-8.468-10.006-11.487-12.247-12.774-3.1-1.78-5.068-4.892-8.453-6.294-2.732-1.13-5.598-1.445-8.492-1.766-2.34.21-4.85.784-7.31 2.013-11.217 5.598-9.09 20.586 1.193 17.283z"/><path fill="#7B898D" d="M280.962 265.64s-4.058 4.38-2.368 7.396c1.69 3.014 3.678 3.505 6.848 2.666 3.17-.84 8.283-6.758 9.565-9.485s1.948-6.187-3.563-5.56c-5.51.627-8.35 2.103-10.482 4.984zM320.935 267.702s2.932 7.652 3.245 11.102c0 0 16.307-4.695 23.048-4.535 0 0-4.384-11.76-10.183-14.43 0 0-5.25 5.704-16.11 7.862zM311.222 272.997s4.962 4.236 6.215 8c0 0-7.84 3.287-17.092 7.986 0 0-1.566-4.548-2.976-5.802 0 0 8.414-3.914 13.852-10.183zM350.83 278.766c-26.494-.065-49.128 13.772-49.128 13.772s-1.676 8.203 6.473 15.106c4.996 4.23 3.863 8.28 2.24 10.783 0 .013.008.023.01.036.563 7.294 10.336 5.39 15.765 2.965 5.78-26.54 26.202-27.4 26.202-27.4 3.924-11.132-1.56-15.262-1.56-15.262z"/><path fill="#95A5A7" d="M301.702 292.537s23.523-14.62 49.13-13.772c0 0-23.728 3.542-49.13 13.772z"/><path fill="#FFF" d="M378.673 341.716s-21.887-3.257-39.31 13.92c0 0 33.614 53.157 59.605 66.965 0 0-25.834-16.316-52.984-66.287 0 0 7.47-11.872 32.69-14.597zM373.586 551.247s2.186 17.455 23.088 19.974 33.443 3.362 38.682-22.765c3.56-14.42-1.715-20.186-1.715-20.186s8.735-13.36 27.547-12.62c0 0-20.692-3.668-30.838 11.482 0 0 4.594 7.736 1.87 19.65-2.8 12.26-3.565 25.917-35.127 21.303-21.005-4.086-23.507-16.838-23.507-16.838z"/><path fill="#7B898D" d="M732.2 399.406c.004-9.563-9.09-9.567-19.908-6.437-8.517 2.463-15.17 8.216-17.624 10.56-2.99 2.28-4.96 5.105-4.96 5.105-8.47 11.597-6.593 19.75-6.593 19.75 1.255-3.135 7.218-13.166 16.626-15.983-7.254 4.658-13.01 16.372-14.794 20.307-1.13 2.074-1.975 4.01-2.15 5.394-.628 5.017 8.776 9.41 25.084.64 7.77-4.18 12.875-7.51 15.446-11.033.183-.186.36-.36.55-.56 2.05-2.155 4.323-6.388 5.85-11.025 1.94-4.232 2.47-10.1 2.473-16.72z"/><path fill="#627377" d="M713.38 413.192s-4.654.875-7.09-.283c-.182-.122-.376-.238-.592-.35-6.112-3.138-13.17 4.07-13.17 4.07s-10.043 17.552-4.24 9.403c5.806-8.15 11.608-12.693 15.684-11.593 4.075 1.1.048 8.518.048 8.518s1.438-1.342 2.594-3.12c.565-.61 4.17-4.484 6.766-6.646z"/><path fill="#7B898D" d="M297.05 292.43s-14.894 1.404-19.6 7.83c-4.707 6.424 4.073 7.213 12.38 9.098s17.242 5.496 18.498 2.674c1.255-2.82-13.477-10.51-21.316-10.67 0 0 7.526-.467 9.72.16 2.195.63 2.825-4.7.318-9.092zM275.457 314.995s-1.57 1.358-2.554 3.357c-.976 1.79-1.066 2.62.146 4.637 1.195 1.99 3.68 3.552 5.797 4.55 5.33 2.51 7.704 3.156 12.337 1.78 1.894-1.314 3.434-3.714 4.022-5.43 0 0-12.75-2.098-19.75-8.895z"/><path fill="#95A5A7" d="M297.05 292.43s-11.13.726-17.404 5.53c-6.273 4.804-3.87 8.15.518 9.302s25.812 7.433 27.903 5.344c.94-.836.106-1.777.106-1.777s-1.046 1.462-7.63-.11c-6.582-1.57-14.63-4.083-18.183-5.234-3.553-1.152-6.06-2.51-1.46-5.958 4.6-3.445 9.722-5.637 16.15-7.098z"/><path fill="#7B898D" d="M356.805 293.076c-.024.126-.05.28-.074.423 4.77-.613 9.603-.072 14.444.647.325-1.994.58-3.964.73-5.766 1.037-5.284 1.507-11.215-.19-13.785-2.59-3.92-6.4-5.333-10.363-4.395-3.963.938-4.725 2.35-3.81 4.23 0 0 2.284 2.98.757 8.937-1.09 4.26-1.402 7.947-1.492 9.71z"/><path fill="#95A5A7" d="M357.96 284.7s1.178-5.173.474-7.682-3.525-5.175 1.806-6.583c5.33-1.41 12.306.084 12.773 9.177-.003 6.82-1.575 13.874-1.575 13.874s1.025-13.325-.618-17.167c-1.645-3.842-4.936-4.942-7.758-4.63s-4.547.546-3.607 3.134c.94 2.587-1.495 9.876-1.495 9.876zM306.162 254.34s-3.446-5.646 5.648-9.56c9.094-3.915 14.658.163 15.128.947 0 0-6.27-3.217-14.58.698s-6.196 7.914-6.196 7.914zM279.657 274.706s-4.858-4.47 2.514-10.738 12.858-3.52 13.485-2.267c0 0-4.546-1.49-11.916 3.914-7.373 5.406-4.083 9.092-4.083 9.092zM724.365 391.25c4.39.47 7.838 2.51 7.05 13.642-.52 7.34-3.386 13.88-4.46 16.113-3.62 4.943-10.19 11.588-21.267 16.014-12.87 5.14-25.767 7.825-18.026-5.967s8.63-13.53 13.02-16.455c0 0-8.99 3.34-15.475 16.297-6.487 12.956.618 18.604 21.944 8.79 7.257-3.34 12.307-7.332 15.817-11.15 3.784-3.425 8.047-8.305 9.858-23.015 2.044-16.617-8.46-14.27-8.46-14.27z"/><path fill="#425356" d="M350.02 650.838s-25.078-12.555-13.774-45.575c11.304-33.022 40.158-49.73 76.94-36.333l38.877 8.38s18.387 16.732 17.535 47.667l-119.578 25.86z"/><path fill="#122B2A" d="M352.11 651.676s-16.3-9.205-6.255-30.104c10.044-20.898 19.665-33.853 61.467-25.472 41.802 8.38 63.12 12.155 62.277 28.876-.845 16.72-16.322 33.018-68.153 16.27 0 .003-25.93 20.475-49.336 10.43z"/><path fill="#95A5A7" d="M582.103 241.05c-7.596 1.36-15.962-3.828-19.258-10.696-3.015-6.282-3.45-15.9 1.3-21.534l-.26-.464c-.645.335-1.284.684-1.927 1.024-1.266.877-2.613 1.65-4.003 2.332-1.154 2.033-4.75 9.956 1.563 21.116 7.362 13.016 18.44 11.245 18.44 11.245l4.288-2.768-.143-.255z"/><path fill="#627377" d="M335.92 635.468s-11.905-22.268 6.92-45.774c18.824-23.506 29.366-30.463 59.898-24.114 29.47 6.128 33.545 8.482 33.545 8.482s-45.445-7.166-58.944-4.105c-13.8 3.13-25.72 14.41-34.82 29.457-9.1 15.045-9.42 26.646-6.6 36.054z"/><path fill="#425356" d="M566.06 209.786l-2.116 2.266s-3.845 7.974.226 16.44c4.386 8.05 10.863 12.13 15.567 10.983 1.882-.626 2.3-1.15 2.3-1.15l1.254-1.775s1.672 1.464-.314 4.075c-1.987 2.61-9.512 1.667-13.377-1.156-3.867-2.825-7.837-6.38-9.713-14.952-1.974-9.013 1.366-14.84 3.98-16.198 2.196-1.357 3.66-.52 3.66-.52l-1.466 1.986z"/><path fill="#7B898D" d="M417.02 297.153s-5.215 3.72-1.3 13.286 8.617 8.077 8.617 8.077l-3.45.86s-4.938.076-7.99-9.88c-2.504-9.487.75-11.523.75-11.523l3.372-.82z"/><path fill="#717272" d="M417.705 308.898c-3.043-7.71.378-10.16 1.417-10.702.287-.134.412-.197.602-.21.158-.013.156-.02.312-.036l.162-.06c-.182-.264-.283-.46-.494-.857-.766-.282-1.618-.243-2.655.027-2.832 1.926-4.364 5.285-1.75 12.463 4.02 11.028 9.926 8.994 9.926 8.994l1.497-.548c.222-.183.402-.39.56-.616-2.232-.07-6.706-1.18-9.578-8.456z"/><g fill="#FFF"><circle opacity=".1" cx="463.04" cy="358.67" r="6.121"/><circle cx="463.04" cy="358.67" r="1.149"/></g><path fill="#1DACE3" d="M602.414 352.153s-13.333 15.514-1.118 42.955c9.397 17.563 17.862 19.762 17.862 19.762l-.94 2.038s-10.503-4.08-18.647-20.86c-7.235-14.907-8.606-30.73 1.905-45.62l.94 1.725z"/><path fill="#909A9D" d="M428.564 332.524s1.417-10.87 16-18.544c14.583-7.675 21.326-9.24 25.715-8.767l6.114-2.662s4.71-14.733 45.63-17.692c19.753-1.872 35.222-.61 37.833.49 0 0-44.26-1.12-65.9 8.432-14.897 6.577-16.625 13.318-16.625 13.318l-4.39 2.036s-7.994-4.394-27.127 7.355c-19.132 11.748-15.53 19.797-15.53 19.797s-.882-1.388-1.202-2.143c-.318-.755-.52-1.62-.52-1.62z"/><path fill="#C7C7C7" d="M686.87 581.103s8.525-46.735-16.34-78.52c0 0 17.09 12.34 20.55 42.443 3.46 30.103-4.21 36.077-4.21 36.077z"/><path fill="#F2F2F2" d="M669.874 575.327s.01-22.89-45.124-53.116l-2.145 2.656c0-.002 39.34 25.164 47.27 50.46z"/><path fill="#017499" d="M519.696 554.193s.784-1.332 3.37-1.802 16.307-3.12 21.48-.965 17.47 10.215 17.47 10.215-9.61 2.76-22.833 3.38c-13.22.62-19.487-10.827-19.487-10.827z"/><path fill="#1DACE3" d="M510.327 551.568s13.206 1.146 36.854-4.138l1.185 1.91s-19.157 4.817-38.038 3.73v-1.502z"/><path fill="#DCDCDB" d="M418.63 383.91s-34.204 13.362-14.997 62.464h2.927s-19.71-43.68 15.654-61.678l-3.583-.787zM407.59 377.033c-.038-.447-.043-.895-.01-1.345-.092-.49-.14-.994-.17-1.505-9.297-.726-34.012 1.535-44.144 43.53l2.41 1.66s7.664-42.31 41.915-42.34zM394.722 360.646c.05-.445.136-.885.258-1.32.008-.5.062-1.002.135-1.508-8.966-2.57-33.635-5.29-51.953 33.833l2.03 2.108s15.963-39.926 49.53-33.112zM711.36 372.273s22.812-13.785 45.467-6.17v-2.744s-18.57-9.2-47.834 6.325l2.368 2.588zM705.724 358.867s24.318-18.555 46.884-9.612l1.408-2.357s-19.108-12.023-49.167 9.284l.874 2.685zM704.79 346.01c23.99-20.653 44.52-9.49 41.707-10.822l-.156-2.404s-16.037-10.244-42.385 10.17l.835 3.057zM707.304 335.587s7.43-19.985 18.51-22.8l-3.76-1.096s-10.82 3.206-17.78 24.283l3.03-.386zM699.4 310.57s-9.438 6.466-3.954 24.733l-2.233 1.427s-6.28-16.726 2.737-26.162l3.45.002zM681.826 339.583s-8.128-8.255-5.39-23.36h-2.613s-2.975 12.916 5.568 24.663l2.436-1.303zM372.893 554.696s22.752-16.92 65.174 4.212l-.835-3.345s-29.672-20.5-65.547-6.314l1.208 5.446zM376.91 528.263s40.184-14.097 60.658 8.174l2.34-3.29s-17.06-21.644-61.214-9.202l-1.785 4.318zM391.478 510.077s36.48-10.12 47.495 14.76l2.43-1.017s-7.005-25.89-47.54-16.377c0 0-1.17.95-2.385 2.634zM419.623 496.648s27.83-2.64 33.366 21.507l2.55-.835s-3.675-22.477-29.186-21.494c0 0-2.762.113-6.73.822z"/><path opacity=".3" fill="#FFF" d="M501.118 129.84c-2.64-.364-5.33-.545-8.072-.555-18.193-.006-39.23 7.598-68.22 24.666-34.074 20.056-50.688 40.38-52.27 63.935-1.394 20.843 9.01 41.772 22.754 66.947 25.356 46.423 51.042 97.506 51.297 98.015l1.01 1.996 2.156.59c.145.036 1.44.387 3.75.81-4.25-.636-6.655-1.278-6.85-1.335l-2.156-.59-1-1.998c-.254-.51-25.947-51.58-51.296-98.015-13.745-25.175-24.155-46.09-22.752-66.947 1.58-23.556 18.187-43.866 52.26-63.93 28.993-17.06 50.04-24.666 68.22-24.657 3.824-.003 7.547.357 11.17 1.07z"/><g><g fill="#FFF" stroke="#FFF" stroke-miterlimit="10"><circle opacity=".1" cx="255.392" cy="238.889" r="109.395"/><circle opacity=".1" cx="255.392" cy="238.889" r="99.61"/></g><path fill="#5B5A5D" stroke="#676767" stroke-miterlimit="10" d="M315.084 274.293c1.51 3.105.206 6.882-2.9 8.393l-57.25 27.857c-3.106 1.51-6.883.206-8.394-2.9l-54.61-112.237c-1.51-3.105-.206-6.882 2.9-8.393l57.25-27.857c3.106-1.51 6.883-.206 8.394 2.9l54.61 112.237z"/><path fill="#737F82" d="M205.288 208.534l57.28-27.87 40.393 83.024-57.278 27.868z"/><path fill="#3F4040" d="M283.497 285.443c1.168 2.4.17 5.29-2.23 6.458-2.4 1.168-5.292.17-6.46-2.23-1.167-2.4-.168-5.29 2.232-6.458 2.398-1.168 5.29-.17 6.457 2.23z"/><path fill="none" stroke="#3F4040" stroke-width="2" stroke-linecap="round" stroke-miterlimit="10" d="M220.723 189.554L238.1 181.1"/><g fill="#B3BBBB"><path d="M214.99 219.985l50.842-24.737 18.002 36.998-50.844 24.738zM235.086 261.293l14.482-7.046 4.95 10.173-14.482 7.046zM253.39 252.387l32.54-15.832 1.88 3.862-32.54 15.832zM256.46 258.698l32.542-15.833 1.88 3.862-32.542 15.833z"/><g><path d="M241.915 275.328l14.482-7.046 4.95 10.173-14.482 7.046zM260.22 266.42l32.54-15.832 1.88 3.862-32.542 15.833zM263.288 272.732l32.54-15.833 1.88 3.86-32.54 15.834z"/></g><path d="M210.248 210.856l50.844-24.738 2.513 5.165-50.844 24.738z"/></g></g><g opacity=".4"><g fill="#FFF" stroke="#FFF" stroke-miterlimit="10"><circle opacity=".1" cx="670.596" cy="222.789" r="23.393"/><circle opacity=".1" cx="670.596" cy="222.789" r="21.3"/></g><path fill="#5B5A5D" stroke="#676767" stroke-miterlimit="10" d="M682.254 231.972c.233.7-.15 1.465-.85 1.698l-12.92 4.296c-.7.233-1.464-.15-1.697-.85l-8.42-25.327c-.234-.702.15-1.466.85-1.7l12.918-4.295c.7-.233 1.465.15 1.698.85l8.42 25.327z"/><path fill="#737F82" d="M660.828 214.945l12.925-4.297 6.23 18.735-12.926 4.297z"/><path fill="#3F4040" d="M675.245 233.448c.18.54-.113 1.126-.654 1.306-.54.18-1.125-.113-1.305-.654-.18-.54.113-1.126.654-1.306.54-.18 1.125.112 1.305.654z"/><path fill="none" stroke="#3F4040" stroke-width="2" stroke-linecap="round" stroke-miterlimit="10" d="M664.634 211.356l3.92-1.303"/><g fill="#8B9799"><path d="M662.563 217.646l11.473-3.815 2.776 8.35-11.473 3.815zM665.66 226.968l3.27-1.087.763 2.297-3.268 1.086zM669.79 225.595l7.344-2.44.29.87-7.344 2.44zM670.265 227.02l7.343-2.442.29.87-7.344 2.442z"/><g><path d="M666.714 230.135l3.268-1.087.764 2.296-3.268 1.086zM670.844 228.762l7.343-2.44.29.87-7.344 2.44zM671.318 230.186l7.343-2.44.29.87-7.343 2.44z"/></g><path d="M661.814 215.578l11.473-3.815.388 1.165-11.473 3.815z"/></g></g><g opacity=".5"><circle opacity=".1" fill="#FFF" stroke="#FFF" stroke-miterlimit="10" cx="88.664" cy="472.549" r="30.991"/><circle opacity=".1" fill="#FFF" stroke="#FFF" stroke-miterlimit="10" cx="88.664" cy="472.549" r="27.638"/><path fill="#5B5A5D" stroke="#676767" stroke-miterlimit="10" d="M103.416 461.282c-.004-.003-.01-.004-.015-.007.245-.862-.19-3-7.914-6.044-8.418-3.315-9.72-1.647-9.918-.963-.012-.004-.023-.01-.037-.012l-11.664 29.678h.013c-.263.76.032 2.81 7.962 5.934 8.552 3.37 9.816 1.452 10 .743l11.574-29.328z"/><path fill="#3F4040" d="M91.585 488.49l-15.955-6.284 10.253-26.03 15.955 6.286z"/><path fill="#737F82" d="M92.247 486.81l-15.955-6.284 9.26-23.51 15.956 6.285z"/><path fill="#8B9799" d="M100.515 465.822l-15.955-6.285.992-2.52 15.955 6.286z"/><path fill="#5B5A5D" d="M79.83 483.86l-3.36-1.324.663-1.68 3.36 1.324zM84.868 485.845l-3.36-1.323.662-1.68 3.36 1.324zM89.905 487.828l-3.358-1.323.66-1.68 3.36 1.324z"/></g></svg>